#N canvas 546 70 260 559 12;
#N canvas 167 268 1113 506 tablet-ctl 0;
#X obj 20 21 receive fromGUI;
#X obj 20 46 list trim;
#X obj 614 74 send toGUI;
#X obj 741 21 receive fromSystem;
#X obj 741 46 list trim;
#X obj 741 71 route /tilts;
#X obj 741 96 unpack 0 0;
#X obj 61 161 sel 1;
#X obj 144 196 sel 1;
#X obj 741 171 s volume;
#X obj 20 221 s frag;
#X obj 61 186 s next;
#X obj 144 221 s gotoone;
#X obj 20 110 unpack;
#X obj 20 135 + 1;
#X obj 103 132 s play;
#X obj 614 221 loadbang;
#X obj 614 360 send toGUI;
#X obj 614 21 r menuupd;
#X msg 614 251 list /menu frag1 frag2 frag3 frag4 frag5 frag6 frag7
frag8 frag9 frag10 frag11 frag12 frag13 frag14 frag15 frag16 frag17
frag18 frag19 frag20 frag21 frag22 frag23 frag24 frag25 frag26 frag27
frag28 frag29 frag30 frag31 frag32 frag33 frag34 frag35 frag36 frag37
frag38 frag39 frag40 frag41 frag42 frag43 frag44 frag45 frag46 frag47
frag48 frag49 frag50 frag51 frag52 frag53;
#X obj 741 146 + 1;
#X obj 741 121 * 1;
#X obj 818 132 + 1;
#X obj 318 132 *;
#X obj 318 157 *;
#X obj 227 246 s osc2-detune;
#X obj 227 221 * 0.2;
#X obj 269 132 * 2.8;
#X obj 269 157 - 1.4;
#X obj 269 279 s osc2-oct;
#X obj 318 306 s cutoff;
#X obj 352 251 s vcf-rez;
#X obj 393 279 s filt-env;
#X obj 318 207 + 50;
#X obj 318 182 * 4000;
#X obj 352 132 * 4;
#X obj 352 157 + 1;
#X obj 393 196 * 5;
#X obj 393 221 - 0.5;
#X obj 435 132 *;
#X obj 435 157 *;
#X obj 435 306 s del-mix;
#X obj 818 207 s cutoff;
#X obj 818 182 + 50;
#X obj 818 157 * 2000;
#X obj 186 157 s del-mix;
#X obj 186 132 * 0.7;
#X msg 614 46 list /count \$1;
#X obj 476 221 s del;
#X obj 518 161 s metro;
#X obj 559 132 s click;
#X obj 20 71 route /menu /next /play /gotoone /del /sl1 /sl2 /sl3 /sl4
/sl5 /sl0 /mdel /metro /click, f 83;
#X msg 886 98 0.5;
#X obj 476 196 * 260;
#X connect 0 0 1 0;
#X connect 1 0 51 0;
#X connect 3 0 4 0;
#X connect 4 0 5 0;
#X connect 5 0 6 0;
#X connect 6 0 21 0;
#X connect 6 1 22 0;
#X connect 7 0 11 0;
#X connect 8 0 12 0;
#X connect 13 0 14 0;
#X connect 14 0 10 0;
#X connect 16 0 19 0;
#X connect 18 0 47 0;
#X connect 19 0 17 0;
#X connect 20 0 9 0;
#X connect 21 0 20 0;
#X connect 22 0 44 0;
#X connect 23 0 24 0;
#X connect 23 0 24 1;
#X connect 24 0 34 0;
#X connect 26 0 25 0;
#X connect 27 0 28 0;
#X connect 28 0 29 0;
#X connect 33 0 30 0;
#X connect 34 0 33 0;
#X connect 35 0 36 0;
#X connect 36 0 31 0;
#X connect 37 0 38 0;
#X connect 38 0 32 0;
#X connect 39 0 40 0;
#X connect 39 0 40 1;
#X connect 40 0 41 0;
#X connect 43 0 42 0;
#X connect 44 0 43 0;
#X connect 46 0 45 0;
#X connect 47 0 2 0;
#X connect 51 0 13 0;
#X connect 51 1 7 0;
#X connect 51 2 15 0;
#X connect 51 3 8 0;
#X connect 51 4 46 0;
#X connect 51 5 26 0;
#X connect 51 6 27 0;
#X connect 51 7 23 0;
#X connect 51 7 23 1;
#X connect 51 8 35 0;
#X connect 51 9 37 0;
#X connect 51 10 39 0;
#X connect 51 10 39 1;
#X connect 51 11 53 0;
#X connect 51 12 49 0;
#X connect 51 13 50 0;
#X connect 52 0 22 0;
#X connect 52 0 21 0;
#X connect 53 0 48 0;
#X restore 73 502 pd tablet-ctl;
#N canvas 551 236 560 538 in-c-player 0;
#X obj 109 126 tgl 25 0 empty play PLAY 0 -7 0 10 -261234 -1 -1 0 1
;
#X obj 103 350 f;
#X obj 132 350 + 1;
#X obj 103 379 mod 4;
#X floatatom 103 408 5 0 0 0 - - -;
#X obj 103 434 sel 0;
#X obj 224 255 qlist;
#X msg 224 227 bang;
#X obj 185 350 r mod;
#X obj 102 232 metro 250;
#X floatatom 171 169 5 0 0 0 - - -;
#X obj 251 151 f;
#X obj 282 151 + 1;
#X obj 144 126 bng 25 250 50 0 empty next NEXT 0 -7 0 10 -204786 -1
-1;
#X msg 251 122 1;
#X obj 179 126 bng 25 250 50 0 empty gotoone go_to_1 -5 -7 0 10 -204786
-1 -1;
#X obj 251 89 loadbang;
#X obj 289 122 r frag;
#X obj 113 196 hsl 90 15 0 250 0 0 empty del empty -2 -8 0 10 -204786
-1 -1 0 1;
#X obj 251 176 s menuupd;
#X obj 102 257 delay;
#X obj 110 168 tgl 20 0 empty metro mtr 0 -7 0 10 -204800 -1 -1 1 1
;
#X obj 139 168 tgl 20 0 empty click clck 0 -7 0 10 -204800 -1 -1 0
1;
#X obj 178 283 spigot;
#X obj 102 287 spigot;
#X obj 119 319 bng 15 250 50 0 empty empty empty 17 7 0 10 -262144
-1 -1;
#X obj 178 314 s ping;
#X obj 325 291 r ping;
#X obj 369 345 noise~;
#X obj 325 345 line~;
#X obj 325 370 *~;
#X obj 325 411 dac~;
#X msg 325 320 0.7 \, 0 30;
#X msg 270 227 read riley-fragments/frag\$1.txt;
#X connect 0 0 24 1;
#X connect 1 0 2 0;
#X connect 1 0 3 0;
#X connect 2 0 1 1;
#X connect 3 0 4 0;
#X connect 4 0 5 0;
#X connect 5 0 7 0;
#X connect 7 0 6 0;
#X connect 8 0 3 1;
#X connect 9 0 20 0;
#X connect 10 0 33 0;
#X connect 11 0 12 0;
#X connect 11 0 10 0;
#X connect 11 0 19 0;
#X connect 12 0 11 1;
#X connect 13 0 11 0;
#X connect 14 0 11 0;
#X connect 15 0 14 0;
#X connect 16 0 14 0;
#X connect 17 0 11 0;
#X connect 18 0 20 1;
#X connect 20 0 23 0;
#X connect 20 0 24 0;
#X connect 21 0 9 0;
#X connect 22 0 23 1;
#X connect 23 0 26 0;
#X connect 24 0 1 0;
#X connect 24 0 25 0;
#X connect 27 0 32 0;
#X connect 28 0 30 1;
#X connect 29 0 30 0;
#X connect 30 0 31 0;
#X connect 30 0 31 1;
#X connect 32 0 29 0;
#X connect 33 0 6 0;
#X coords 0 -1 1 1 120 120 2 100 100;
#X restore 65 16 pd in-c-player;
#N canvas 461 22 705 752 westcoast-synth 0;
#X obj 303 51 r note;
#X obj 441 869 dac~;
#X obj 303 97 unpack 0 0 0;
#X text 278 76 midinote amp dur;
#X obj 121 120 hsl 128 15 1 200 0 0 empty attack attack -2 -8 0 10
-228856 -1 -1 2000 1;
#X obj 121 156 hsl 128 15 0.01 1.2 0 0 empty legato legato -2 -8 0
10 -228856 -1 -1 1200 1;
#X obj 123 248 hsl 128 15 1 4 0 0 empty drive drive -2 -8 0 10 -228856
-1 -1 0 1;
#X obj 122 411 hsl 128 15 0 1 0 0 empty volume volume -2 -8 0 10 -228856
-1 -1 5600 1;
#X obj 121 192 hsl 128 15 1 1000 0 0 empty release release -2 -8 0
10 -228856 -1 -1 2100 1;
#X obj 123 330 hsl 128 15 0 0.99 0 0 empty feedback feedback -2 -8
0 10 -228856 -1 -1 3700 1;
#X obj 123 284 hsl 128 15 0.01 5 1 0 empty symspeed symspeed -2 -8
0 10 -228856 -1 -1 0 1;
#X obj 466 840 +~;
#X obj 402 264 mtof;
#X obj 343 365 *~;
#X obj 343 529 cos~;
#X obj 343 552 hip~ 5;
#X obj 402 291 osc~;
#X obj 343 473 +~;
#X obj 466 529 cos~;
#X obj 466 552 hip~ 5;
#X obj 466 502 +~ 0.03;
#X obj 439 291 tri~;
#X obj 439 317 lop~ 5000;
#X obj 168 220 tgl 15 0 empty sintri sin/tri 17 7 0 10 -262144 -1 -1
0 1;
#N canvas 879 740 450 300 switch 0;
#X obj 60 32 inlet;
#X obj 165 32 inlet~;
#X obj 107 32 inlet~;
#X obj 107 203 outlet~;
#X obj 165 174 *~;
#X obj 60 55 - 1;
#X obj 60 78 * -1;
#X msg 180 126 \$1 30;
#X obj 180 147 line~;
#X obj 107 173 *~;
#X msg 122 125 \$1 30;
#X obj 122 146 line~;
#X connect 0 0 5 0;
#X connect 0 0 7 0;
#X connect 1 0 4 0;
#X connect 2 0 9 0;
#X connect 4 0 3 0;
#X connect 5 0 6 0;
#X connect 6 0 10 0;
#X connect 7 0 8 0;
#X connect 8 0 4 1;
#X connect 9 0 3 0;
#X connect 10 0 11 0;
#X connect 11 0 9 1;
#X restore 372 340 pd switch;
#X obj 343 286 *~;
#X obj 343 308 *~;
#X obj 278 840 +~;
#X obj 343 125 t f b;
#X obj 294 716 delwrite~ ndelL 450;
#X obj 483 716 delwrite~ ndelR 500;
#X obj 306 778 *~;
#X obj 494 778 *~;
#X obj 296 747 delread4~ ndelL;
#X obj 484 747 delread4~ ndelR;
#X obj 123 366 hsl 128 15 0 1 0 0 empty del-mix del-mix -2 -8 0 10
-228856 -1 -1 5300 1;
#X obj 296 810 *~;
#X obj 484 810 *~;
#X obj 375 181 del;
#X obj 343 264 line~;
#X obj 375 209 pack 0 0;
#X obj 393 131 * 1;
#X obj 343 234 pack 0 0;
#X obj 572 639 osc~ 0.1;
#X obj 387 639 osc~ 0.15;
#X obj 361 397 osc~ 0.23;
#X obj 361 421 +~ 0;
#X obj 361 446 /~ 4;
#X obj 343 332 *~;
#X obj 387 689 +~ 350;
#X msg 296 510 \$1 30;
#X obj 296 534 line~;
#X msg 293 275 \$1 30;
#X obj 293 299 line~;
#X obj 466 576 expr~ tanh($v1);
#X obj 343 576 expr~ tanh($v1);
#X obj 482 54 loadbang;
#X obj 387 665 *~ 3;
#X obj 572 662 *~ 3;
#X msg 482 82 \; attack 8 \; legato 0.8 \; release 300 \; drive 1 \;
symspeed 0.05 \; feedback 0.3 \; del-mix 0.25 \; volume 0.5 \; sintri
0;
#X obj 278 604 *~;
#X obj 466 604 *~;
#X obj 312 677 vcf~ 1;
#X msg 143 599 \$1 30;
#X obj 143 623 line~;
#X obj 498 677 vcf~ 1;
#X obj 393 155 + 10;
#X obj 142 571 expr $f1*3000+200;
#X obj 346 778 lop~ 3000;
#X obj 534 778 lop~ 3000;
#X obj 312 650 *~ 0.5;
#X obj 498 650 *~ 0.5;
#X obj 572 688 +~ 500;
#X connect 0 0 2 0;
#X connect 2 0 12 0;
#X connect 2 1 28 0;
#X connect 2 2 41 0;
#X connect 4 0 42 1;
#X connect 4 0 66 1;
#X connect 5 0 41 1;
#X connect 6 0 52 0;
#X connect 7 0 50 0;
#X connect 7 0 67 0;
#X connect 8 0 40 1;
#X connect 9 0 31 1;
#X connect 9 0 32 1;
#X connect 10 0 45 0;
#X connect 11 0 1 1;
#X connect 12 0 16 0;
#X connect 12 0 21 0;
#X connect 13 0 17 0;
#X connect 14 0 15 0;
#X connect 15 0 55 0;
#X connect 16 0 24 1;
#X connect 17 0 14 0;
#X connect 17 0 20 0;
#X connect 18 0 19 0;
#X connect 19 0 54 0;
#X connect 20 0 18 0;
#X connect 21 0 22 0;
#X connect 22 0 24 2;
#X connect 23 0 24 0;
#X connect 24 0 13 1;
#X connect 25 0 26 0;
#X connect 25 0 26 1;
#X connect 26 0 48 0;
#X connect 27 0 1 0;
#X connect 28 0 42 0;
#X connect 28 1 38 0;
#X connect 31 0 68 0;
#X connect 32 0 69 0;
#X connect 33 0 31 0;
#X connect 33 0 36 0;
#X connect 34 0 32 0;
#X connect 34 0 37 0;
#X connect 35 0 36 1;
#X connect 35 0 37 1;
#X connect 36 0 27 1;
#X connect 37 0 11 1;
#X connect 38 0 40 0;
#X connect 39 0 25 0;
#X connect 39 0 25 1;
#X connect 40 0 39 0;
#X connect 41 0 66 0;
#X connect 42 0 39 0;
#X connect 43 0 58 0;
#X connect 44 0 57 0;
#X connect 45 0 46 0;
#X connect 46 0 47 0;
#X connect 47 0 17 1;
#X connect 48 0 13 0;
#X connect 49 0 33 0;
#X connect 50 0 51 0;
#X connect 51 0 60 1;
#X connect 51 0 61 1;
#X connect 52 0 53 0;
#X connect 53 0 48 1;
#X connect 54 0 61 0;
#X connect 54 0 71 0;
#X connect 55 0 60 0;
#X connect 55 0 70 0;
#X connect 56 0 59 0;
#X connect 57 0 49 0;
#X connect 58 0 72 0;
#X connect 60 0 29 0;
#X connect 60 0 27 0;
#X connect 61 0 30 0;
#X connect 61 0 11 0;
#X connect 62 1 27 0;
#X connect 62 1 29 0;
#X connect 63 0 64 0;
#X connect 64 0 62 1;
#X connect 64 0 65 1;
#X connect 65 1 30 0;
#X connect 65 1 11 0;
#X connect 66 0 38 1;
#X connect 67 0 63 0;
#X connect 68 0 29 0;
#X connect 69 0 30 0;
#X connect 70 0 62 0;
#X connect 71 0 65 0;
#X connect 72 0 34 0;
#X coords 0 -1 1 1 180 350 2 100 100;
#X restore 37 144 pd westcoast-synth;
