#N canvas 1098 383 254 449 12;
#N canvas 35 23 1154 908 resmpl-synth 0;
#X obj 913 57 r note;
#X obj 300 649 dac~;
#X obj 300 535 *~;
#X obj 244 573 rev1~;
#X obj 913 103 unpack 0 0 0;
#X text 918 81 midinote amp dur;
#X obj 492 312 *~;
#X obj 578 189 line~;
#X obj 417 383 cos~;
#X obj 417 358 +~;
#X obj 578 166 pack 0 50;
#X floatatom 579 119 0 0 300 0 - - -;
#X obj 578 144 / 100;
#X obj 417 244 phasor~;
#X obj 417 413 hip~;
#X obj 492 244 osc~;
#X obj 417 220 *;
#X obj 492 220 *;
#X text 516 138 mod 1;
#X obj 513 86 r m1;
#X text 610 92 index1;
#X obj 685 310 *~;
#X obj 772 192 line~;
#X obj 772 169 pack 0 50;
#X floatatom 772 120 0 0 300 0 - - -;
#X obj 772 145 / 100;
#X obj 685 244 osc~;
#X obj 685 220 *;
#X floatatom 706 121 7 0 15 0 - - -;
#X text 711 140 mod 2;
#X text 806 98 index2;
#X obj 706 86 r m2;
#X obj 340 383 cos~;
#X obj 340 358 +~;
#X obj 340 244 phasor~;
#X obj 340 412 hip~;
#X floatatom 361 121 3 0 15 0 - - -;
#X obj 340 220 *;
#X obj 361 86 r cm;
#X text 365 136 carrier;
#X obj 913 155 s fund;
#X obj 456 190 r fund;
#X obj 349 535 *~;
#X obj 913 128 mtof;
#X obj 578 239 *~;
#X obj 772 244 *~;
#X obj 513 665 s~ menv1;
#X obj 599 215 r~ menv1;
#X obj 793 220 r~ menv2;
#X obj 578 289 *~;
#X obj 772 292 *~;
#X obj 599 265 r~ mmod1;
#X obj 793 268 r~ mmod2;
#X obj 39 480 s~ mmod1;
#X obj 122 479 s~ mmod2;
#X obj 916 451 s~ aenv;
#X obj 398 497 r~ aenv;
#X obj 416 439 s~ R;
#X obj 300 497 r~ L;
#X obj 340 437 s~ L;
#X obj 349 497 r~ R;
#X obj 39 452 +~ 1;
#X obj 122 453 +~ 1;
#X obj 100 100 cnv 15 200 240 empty empty empty 20 12 0 14 -13381 -66577
0;
#X obj 136 294 hsl 128 15 0 0.9 0 0 empty index-mod index-mod -2 -8
0 10 -204786 -1 -261682 7700 1;
#X obj 136 324 hsl 128 15 0.01 1 1 0 empty volume volume -2 -8 0 10
-204786 -1 -261682 12700 1;
#X obj 136 234 hsl 128 15 1 80 0 0 empty index1 index1 -2 -8 0 10 -204786
-1 -261682 143 1;
#X obj 978 155 s amp;
#X obj 1027 155 s dur;
#X obj 966 216 r dur;
#X obj 916 216 r amp;
#X obj 513 164 * 1;
#X obj 706 164 * 1;
#X floatatom 513 124 5 0 0 0 - - -;
#X obj 216 497 loadbang;
#X obj 111 114 hradio 15 1 0 12 choose-prog program program 0 -8 0
10 -204786 -1 -261682 1;
#N canvas 839 842 466 347 mod-presets 0;
#X obj 93 32 r choose-prog;
#X obj 93 57 route 0 1 2 3 4 5 6 7 8 9 10 11;
#X msg 93 89 \; cm 4 \; m1 1 \; m2 3;
#X msg 113 164 \; cm 2 \; m1 1 \; m2 5;
#X msg 135 238 \; cm 1 \; m1 1 \; m2 3;
#X msg 154 89 \; cm 5 \; m1 1 \; m2 3;
#X msg 174 164 \; cm 3 \; m1 2 \; m2 7;
#X msg 195 238 \; cm 8 \; m1 1 \; m2 7;
#X msg 215 89 \; cm 2 \; m1 1 \; m2 3.5;
#X msg 235 164 \; cm 1 \; m1 1.01 \; m2 13.7;
#X msg 276 89 \; cm 7 \; m1 1 \; m2 7;
#X msg 297 164 \; cm 4.5 \; m1 1 \; m2 3;
#X msg 256 239 \; cm 3 \; m1 0.93 \; m2 4.3;
#X msg 317 238 \; cm 3.67 \; m1 1 \; m2 8;
#X connect 0 0 1 0;
#X connect 1 0 2 0;
#X connect 1 1 3 0;
#X connect 1 2 4 0;
#X connect 1 3 5 0;
#X connect 1 4 6 0;
#X connect 1 5 7 0;
#X connect 1 6 8 0;
#X connect 1 7 9 0;
#X connect 1 8 12 0;
#X connect 1 9 10 0;
#X connect 1 10 11 0;
#X connect 1 11 13 0;
#X restore 1009 537 pd mod-presets;
#X obj 39 427 *~ 0.7;
#X obj 122 427 *~ 0.7;
#X obj 136 264 hsl 128 15 1 80 0 0 empty index2 index2 -2 -8 0 10 -204786
-1 -261682 274 1;
#X msg 216 529 30;
#X obj 301 583 *~;
#X obj 349 583 *~;
#X obj 122 402 osc~ 0.071;
#X obj 39 402 osc~ 0.13;
#X obj 149 572 *~ 0.4;
#X obj 244 611 *~;
#X obj 136 144 hsl 128 15 1 200 0 0 att attack attack -2 -8 0 10 -228856
-1 -1 0 1;
#X obj 136 174 hsl 128 15 0.01 1.2 0 0 leg legato legato -2 -8 0 10
-228856 -1 -1 3226 1;
#X obj 136 204 hsl 128 15 1 1000 0 0 rel release release -2 -8 0 10
-228856 -1 -1 0 1;
#X obj 916 398 *~;
#X obj 916 420 *~;
#X obj 916 243 t f b;
#X obj 948 293 del;
#X obj 916 376 line~;
#X obj 948 321 pack 0 0;
#X obj 966 243 * 1;
#X obj 916 346 pack 0 0;
#X obj 966 267 + 10;
#X obj 1012 404 loadbang;
#X msg 1012 432 \; attack 8 \; legato 0.8 \; release 300 \; volume
1 \; program 0;
#X obj 438 164 * 0.993;
#X obj 361 164 * 1.005;
#X obj 1007 241 r att;
#X obj 1011 216 r leg;
#X obj 1001 295 r rel;
#X obj 563 416 r dur;
#X obj 513 416 r amp;
#X obj 513 618 *~;
#X obj 513 640 *~;
#X obj 513 463 t f b;
#X obj 545 513 del;
#X obj 513 596 line~;
#X obj 545 541 pack 0 0;
#X obj 563 463 * 1;
#X obj 513 566 pack 0 0;
#X obj 563 487 + 10;
#X obj 610 467 r att;
#X obj 610 416 r leg;
#X obj 611 520 r rel;
#X obj 610 440 * 0.8;
#X obj 610 491 * 3;
#X obj 611 544 * 0.9;
#X obj 720 413 r dur;
#X obj 670 413 r amp;
#X obj 670 615 *~;
#X obj 670 637 *~;
#X obj 670 460 t f b;
#X obj 702 510 del;
#X obj 670 593 line~;
#X obj 702 538 pack 0 0;
#X obj 720 460 * 1;
#X obj 670 563 pack 0 0;
#X obj 720 484 + 10;
#X obj 767 464 r att;
#X obj 767 413 r leg;
#X obj 768 517 r rel;
#X obj 670 662 s~ menv2;
#X obj 767 437 * 0.9;
#X obj 768 541 * 1;
#X obj 767 487 * 0.5;
#X obj 200 571 rev1~;
#X obj 200 609 *~;
#X connect 0 0 4 0;
#X connect 2 0 3 0;
#X connect 2 0 81 0;
#X connect 3 0 86 0;
#X connect 4 0 43 0;
#X connect 4 1 67 0;
#X connect 4 2 68 0;
#X connect 6 0 9 1;
#X connect 6 0 33 1;
#X connect 7 0 44 0;
#X connect 8 0 14 0;
#X connect 9 0 8 0;
#X connect 10 0 7 0;
#X connect 11 0 12 0;
#X connect 12 0 10 0;
#X connect 13 0 9 0;
#X connect 14 0 57 0;
#X connect 15 0 6 0;
#X connect 16 0 13 0;
#X connect 17 0 15 0;
#X connect 19 0 73 0;
#X connect 21 0 9 1;
#X connect 21 0 33 1;
#X connect 22 0 45 0;
#X connect 23 0 22 0;
#X connect 24 0 25 0;
#X connect 25 0 23 0;
#X connect 26 0 21 0;
#X connect 27 0 26 0;
#X connect 28 0 72 0;
#X connect 31 0 28 0;
#X connect 32 0 35 0;
#X connect 33 0 32 0;
#X connect 34 0 33 0;
#X connect 35 0 59 0;
#X connect 36 0 101 0;
#X connect 36 0 102 0;
#X connect 37 0 34 0;
#X connect 38 0 36 0;
#X connect 41 0 27 0;
#X connect 41 0 17 0;
#X connect 41 0 16 0;
#X connect 41 0 37 0;
#X connect 42 0 82 0;
#X connect 42 0 141 0;
#X connect 43 0 40 0;
#X connect 44 0 49 0;
#X connect 45 0 50 0;
#X connect 47 0 44 1;
#X connect 48 0 45 1;
#X connect 49 0 6 1;
#X connect 50 0 21 1;
#X connect 51 0 49 1;
#X connect 52 0 50 1;
#X connect 56 0 2 1;
#X connect 56 0 42 1;
#X connect 58 0 2 0;
#X connect 60 0 42 0;
#X connect 61 0 53 0;
#X connect 62 0 54 0;
#X connect 64 0 77 1;
#X connect 64 0 78 1;
#X connect 65 0 81 1;
#X connect 65 0 82 1;
#X connect 65 0 85 0;
#X connect 66 0 11 0;
#X connect 69 0 96 0;
#X connect 70 0 92 0;
#X connect 71 0 17 1;
#X connect 72 0 27 1;
#X connect 73 0 71 0;
#X connect 74 0 80 0;
#X connect 77 0 61 0;
#X connect 78 0 62 0;
#X connect 79 0 24 0;
#X connect 80 0 3 1;
#X connect 80 0 141 1;
#X connect 81 0 1 0;
#X connect 82 0 1 1;
#X connect 83 0 78 0;
#X connect 84 0 77 0;
#X connect 85 0 86 1;
#X connect 85 0 142 1;
#X connect 86 0 1 1;
#X connect 90 0 91 0;
#X connect 90 0 91 1;
#X connect 91 0 55 0;
#X connect 92 0 97 0;
#X connect 92 1 93 0;
#X connect 93 0 95 0;
#X connect 94 0 90 0;
#X connect 94 0 90 1;
#X connect 95 0 94 0;
#X connect 96 0 98 0;
#X connect 97 0 94 0;
#X connect 98 0 93 1;
#X connect 99 0 100 0;
#X connect 101 0 16 1;
#X connect 102 0 37 1;
#X connect 103 0 98 1;
#X connect 103 0 97 1;
#X connect 104 0 96 1;
#X connect 105 0 95 1;
#X connect 106 0 114 0;
#X connect 107 0 110 0;
#X connect 108 0 109 0;
#X connect 108 0 109 1;
#X connect 109 0 46 0;
#X connect 110 0 115 0;
#X connect 110 1 111 0;
#X connect 111 0 113 0;
#X connect 112 0 108 0;
#X connect 112 0 108 1;
#X connect 113 0 112 0;
#X connect 114 0 116 0;
#X connect 115 0 112 0;
#X connect 116 0 111 1;
#X connect 117 0 121 0;
#X connect 118 0 120 0;
#X connect 119 0 122 0;
#X connect 120 0 114 1;
#X connect 121 0 116 1;
#X connect 121 0 115 1;
#X connect 122 0 113 1;
#X connect 123 0 131 0;
#X connect 124 0 127 0;
#X connect 125 0 126 0;
#X connect 125 0 126 1;
#X connect 126 0 137 0;
#X connect 127 0 132 0;
#X connect 127 1 128 0;
#X connect 128 0 130 0;
#X connect 129 0 125 0;
#X connect 129 0 125 1;
#X connect 130 0 129 0;
#X connect 131 0 133 0;
#X connect 132 0 129 0;
#X connect 133 0 128 1;
#X connect 134 0 140 0;
#X connect 135 0 138 0;
#X connect 136 0 139 0;
#X connect 138 0 131 1;
#X connect 139 0 130 1;
#X connect 140 0 133 1;
#X connect 140 0 132 1;
#X connect 141 0 142 0;
#X connect 142 0 1 0;
#X coords 0 -1 1 1 200 240 2 100 100;
#X restore 28 146 pd resmpl-synth;
#N canvas 107 192 1114 617 tablet-ctl 0;
#X obj 20 21 receive fromGUI;
#X obj 20 58 list trim;
#X obj 925 33 receive fromSystem;
#X obj 925 61 list trim;
#X obj 925 89 route /tilts;
#X obj 925 116 unpack 0 0;
#X obj 23 405 loadbang;
#X obj 23 555 send toGUI;
#X msg 23 430 list /menu frag1 frag2 frag3 frag4 frag5 frag6 frag7
frag8 frag9 frag10 frag11 frag12 frag13 frag14 frag15 frag16 frag17
frag18 frag19 frag20 frag21 frag22 frag23 frag24 frag25 frag26 frag27
frag28 frag29 frag30 frag31 frag32 frag33 frag34 frag35 frag36 frag37
frag38 frag39 frag40 frag41 frag42 frag43 frag44 frag45 frag46 frag47
frag48 frag49 frag50 frag51 frag52 frag53;
#X obj 925 203 *;
#X obj 925 234 *;
#X obj 925 144 + 1;
#X obj 925 171 * 0.5;
#X obj 1002 202 *;
#X obj 1002 233 *;
#X obj 1002 143 + 1;
#X obj 1002 170 * 0.5;
#X obj 925 289 s index1;
#X obj 1002 290 s index2;
#X obj 925 264 * 150;
#X obj 1002 262 * 150;
#X msg 20 170 0;
#X msg 59 230 1;
#X msg 98 170 2;
#X msg 139 230 3;
#X msg 177 170 4;
#X msg 216 230 5;
#X msg 256 170 6;
#X msg 295 230 7;
#X msg 335 170 8;
#X msg 374 230 9;
#X msg 413 170 10;
#X msg 453 230 11;
#X obj 209 283 s program;
#X obj 20 142 sel 1;
#X obj 59 202 sel 1;
#X obj 98 142 sel 1;
#X obj 139 202 sel 1;
#X obj 177 142 sel 1;
#X obj 216 202 sel 1;
#X obj 256 142 sel 1;
#X obj 295 202 sel 1;
#X obj 335 142 sel 1;
#X obj 374 202 sel 1;
#X obj 413 142 sel 1;
#X obj 453 202 sel 1;
#X obj 492 173 s volume;
#X obj 532 260 s index-mod;
#X obj 492 142 * 1.2;
#X obj 532 201 * 0.9;
#X obj 610 171 sel 1;
#X obj 689 170 sel 1;
#X obj 571 231 s frag;
#X obj 610 196 s next;
#X obj 689 195 s gotoone;
#X obj 571 142 unpack;
#X obj 571 171 + 1;
#X obj 650 142 s play;
#X obj 777 85 send toGUI;
#X obj 777 33 r menuupd;
#X msg 777 57 list /count \$1;
#X obj 723 290 s del;
#X obj 723 261 * 249;
#X obj 749 144 s metro;
#X obj 779 170 s click;
#X obj 20 95 route /but1 /but2 /but3 /but4 /but5 /but6 /but7 /but8
/but9 /but10 /but11 /but12 /volume /index-mod /menu /next /play /gotoone
/del /metro /click, f 93;
#X obj 551 377 s attack;
#X obj 629 377 s release;
#X obj 629 329 * 999;
#X obj 629 353 + 1;
#X obj 551 329 * 199;
#X obj 551 353 + 1;
#X obj 473 329 * 1.2;
#X obj 473 353 + 0.1;
#X obj 473 377 s legato;
#X obj 473 303 route /legato /attack /release, f 34;
#X obj 509 431 loadbang;
#X obj 509 520 send toGUI;
#X msg 509 461 list /count 0 \, list /attack 0.035 \, list /release
0.3 \, list /legato 0.5 \, list /index-mod 0.5 \, list /volume 0.8
;
#X connect 0 0 1 0;
#X connect 1 0 65 0;
#X connect 2 0 3 0;
#X connect 3 0 4 0;
#X connect 4 0 5 0;
#X connect 5 0 11 0;
#X connect 5 1 15 0;
#X connect 6 0 8 0;
#X connect 8 0 7 0;
#X connect 9 0 10 0;
#X connect 9 0 10 1;
#X connect 10 0 19 0;
#X connect 11 0 12 0;
#X connect 12 0 9 0;
#X connect 12 0 9 1;
#X connect 13 0 14 0;
#X connect 13 0 14 1;
#X connect 14 0 20 0;
#X connect 15 0 16 0;
#X connect 16 0 13 0;
#X connect 16 0 13 1;
#X connect 19 0 17 0;
#X connect 20 0 18 0;
#X connect 21 0 33 0;
#X connect 22 0 33 0;
#X connect 23 0 33 0;
#X connect 24 0 33 0;
#X connect 25 0 33 0;
#X connect 26 0 33 0;
#X connect 27 0 33 0;
#X connect 28 0 33 0;
#X connect 29 0 33 0;
#X connect 30 0 33 0;
#X connect 31 0 33 0;
#X connect 32 0 33 0;
#X connect 34 0 21 0;
#X connect 35 0 22 0;
#X connect 36 0 23 0;
#X connect 37 0 24 0;
#X connect 38 0 25 0;
#X connect 39 0 26 0;
#X connect 40 0 27 0;
#X connect 41 0 28 0;
#X connect 42 0 29 0;
#X connect 43 0 30 0;
#X connect 44 0 31 0;
#X connect 45 0 32 0;
#X connect 48 0 46 0;
#X connect 49 0 47 0;
#X connect 50 0 53 0;
#X connect 51 0 54 0;
#X connect 55 0 56 0;
#X connect 56 0 52 0;
#X connect 59 0 60 0;
#X connect 60 0 58 0;
#X connect 62 0 61 0;
#X connect 65 0 34 0;
#X connect 65 1 35 0;
#X connect 65 2 36 0;
#X connect 65 3 37 0;
#X connect 65 4 38 0;
#X connect 65 5 39 0;
#X connect 65 6 40 0;
#X connect 65 7 41 0;
#X connect 65 8 42 0;
#X connect 65 9 43 0;
#X connect 65 10 44 0;
#X connect 65 11 45 0;
#X connect 65 12 48 0;
#X connect 65 13 49 0;
#X connect 65 14 55 0;
#X connect 65 15 50 0;
#X connect 65 16 57 0;
#X connect 65 17 51 0;
#X connect 65 18 62 0;
#X connect 65 19 63 0;
#X connect 65 20 64 0;
#X connect 65 21 75 0;
#X connect 68 0 69 0;
#X connect 69 0 67 0;
#X connect 70 0 71 0;
#X connect 71 0 66 0;
#X connect 72 0 73 0;
#X connect 73 0 74 0;
#X connect 75 0 72 0;
#X connect 75 1 70 0;
#X connect 75 2 68 0;
#X connect 76 0 78 0;
#X connect 78 0 77 0;
#X restore 75 406 pd tablet-ctl;
#N canvas 1047 102 664 608 in-c-player 0;
#X obj 109 126 tgl 25 0 empty play PLAY 0 -7 0 10 -261234 -1 -1 1 1
;
#X obj 103 350 f;
#X obj 138 350 + 1;
#X obj 103 379 mod 4;
#X floatatom 103 408 5 0 0 0 - - -;
#X obj 103 434 sel 0;
#X obj 103 463 bng 15 250 50 0 empty empty empty 17 7 0 10 -262144
-1 -1;
#X obj 286 258 qlist;
#X msg 286 230 bang;
#X obj 185 353 r mod;
#X obj 102 232 metro 250;
#X floatatom 171 169 5 0 0 0 - - -;
#X obj 260 161 f;
#X obj 295 161 + 1;
#X obj 144 126 bng 25 250 50 0 empty next NEXT 0 -7 0 10 -204786 -1
-1;
#X msg 251 122 1;
#X obj 179 126 bng 25 250 50 0 empty gotoone go_to_1 -5 -7 0 10 -204786
-1 -1;
#X obj 251 89 loadbang;
#X obj 318 123 r frag;
#X obj 113 196 hsl 90 15 0 150 0 0 empty del empty -2 -8 0 10 -204786
-1 -1 0 1;
#X obj 260 186 s menuupd;
#X obj 102 257 delay;
#X obj 455 350 tgl 15 0 empty empty empty 17 7 0 10 -262144 -1 -1 0
1;
#X obj 455 370 sel 1;
#X obj 110 168 tgl 20 0 empty metro mtr 0 -7 0 10 -204800 -1 -1 1 1
;
#X obj 139 168 tgl 20 0 empty click clck 0 -7 0 10 -204800 -1 -1 0
1;
#X obj 178 283 spigot;
#X obj 102 287 spigot;
#X obj 119 319 bng 15 250 50 0 empty empty empty 17 7 0 10 -262144
-1 -1;
#X obj 179 314 s ping;
#X obj 455 323 r ping;
#X obj 525 426 noise~;
#X obj 455 428 line~;
#X obj 455 453 *~;
#X obj 455 494 dac~;
#X msg 455 403 0.7 \, 0 30;
#X msg 332 230 read riley-fragments/frag\$1.txt;
#X connect 0 0 27 1;
#X connect 1 0 2 0;
#X connect 1 0 3 0;
#X connect 2 0 1 1;
#X connect 3 0 4 0;
#X connect 4 0 5 0;
#X connect 5 0 6 0;
#X connect 6 0 8 0;
#X connect 8 0 7 0;
#X connect 9 0 3 1;
#X connect 10 0 21 0;
#X connect 11 0 36 0;
#X connect 12 0 13 0;
#X connect 12 0 11 0;
#X connect 12 0 20 0;
#X connect 13 0 12 1;
#X connect 14 0 12 0;
#X connect 15 0 12 0;
#X connect 15 0 24 0;
#X connect 16 0 15 0;
#X connect 17 0 15 0;
#X connect 18 0 12 0;
#X connect 19 0 21 1;
#X connect 21 0 26 0;
#X connect 21 0 27 0;
#X connect 22 0 23 0;
#X connect 23 0 35 0;
#X connect 24 0 10 0;
#X connect 25 0 26 1;
#X connect 26 0 29 0;
#X connect 27 0 1 0;
#X connect 27 0 28 0;
#X connect 30 0 22 0;
#X connect 31 0 33 1;
#X connect 32 0 33 0;
#X connect 33 0 34 0;
#X connect 33 0 34 1;
#X connect 35 0 32 0;
#X connect 36 0 7 0;
#X coords 0 -1 1 1 120 120 2 100 100;
#X restore 65 16 pd in-c-player;
