#N canvas 1185 162 258 574 12;
#N canvas 1119 851 1113 506 tablet-ctl 0;
#X obj 20 21 receive fromGUI;
#X obj 20 46 list trim;
#X obj 927 80 send toGUI;
#X obj 741 21 receive fromSystem;
#X obj 741 46 list trim;
#X obj 741 71 route /tilts;
#X obj 741 98 unpack 0 0;
#X obj 63 133 sel 1;
#X obj 151 133 sel 1;
#X obj 741 186 s volume;
#X obj 20 181 s frag;
#X obj 63 158 s next;
#X obj 151 158 s gotoone;
#X obj 20 104 unpack;
#X obj 20 133 + 1;
#X obj 107 104 s play;
#X obj 614 211 loadbang;
#X obj 614 357 send toGUI;
#X obj 927 28 r menuupd;
#X msg 614 236 list /menu frag1 frag2 frag3 frag4 frag5 frag6 frag7
frag8 frag9 frag10 frag11 frag12 frag13 frag14 frag15 frag16 frag17
frag18 frag19 frag20 frag21 frag22 frag23 frag24 frag25 frag26 frag27
frag28 frag29 frag30 frag31 frag32 frag33 frag34 frag35 frag36 frag37
frag38 frag39 frag40 frag41 frag42 frag43 frag44 frag45 frag46 frag47
frag48 frag49 frag50 frag51 frag52 frag53;
#X obj 741 156 + 1;
#X obj 741 126 * 1;
#X obj 238 205 s osc2-detune;
#X obj 238 104 * 0.2;
#X obj 282 104 * 2.8;
#X obj 282 133 - 1.4;
#X obj 282 158 s osc2-oct;
#X obj 370 205 s vcf-rez;
#X obj 414 181 s filt-env;
#X obj 370 133 * 4;
#X obj 370 158 + 1;
#X obj 457 104 *;
#X obj 457 133 *;
#X obj 457 158 s del-mix;
#X obj 818 207 s cutoff;
#X obj 195 133 s del-mix;
#X obj 195 104 * 0.7;
#X msg 927 52 list /count \$1;
#X obj 501 133 s del;
#X obj 501 104 * 249;
#X obj 545 133 s metro;
#X obj 589 104 s click;
#X obj 20 71 route /menu /next /play /gotoone /del /sl1 /sl2 /sl3 /sl4
/sl5 /sl0 /mdel /metro /click, f 88;
#X msg 886 84 0.5;
#X obj 129 247 route /attack /legato /release /vibrato /del-time;
#X obj 129 322 s attack;
#X obj 197 322 s legato;
#X obj 264 322 s release;
#X obj 333 322 s vibrato;
#X obj 129 271 * 200;
#X obj 129 295 + 1;
#X obj 197 271 * 1.2;
#X obj 197 295 + 0.1;
#X obj 264 271 * 1000;
#X obj 264 295 + 1;
#X obj 333 271 / 20;
#X obj 401 271 * 500;
#X obj 401 295 + 250;
#X obj 891 188 print;
#X obj 414 133 + 0;
#X obj 818 180 + 80;
#X obj 414 104 * 20;
#X obj 818 155 * 30;
#X obj 401 322 s del-time;
#X obj 486 370 loadbang;
#X obj 487 469 send toGUI;
#X msg 487 401 list /count 0 \, list /attack 0.035 \, list /release
0.3 \, list /legato 0.5 \, list /del 0.15 \, list /sl1 0 \, list /sl2
0.5 \, list /vibrato 0.1 \, list /sl4 0.19 \, list /sl5 0.3 \, list
/del-time 1;
#X connect 0 0 1 0;
#X connect 1 0 42 0;
#X connect 3 0 4 0;
#X connect 4 0 5 0;
#X connect 5 0 6 0;
#X connect 6 0 21 0;
#X connect 6 1 62 0;
#X connect 7 0 11 0;
#X connect 8 0 12 0;
#X connect 13 0 14 0;
#X connect 14 0 10 0;
#X connect 16 0 19 0;
#X connect 18 0 37 0;
#X connect 19 0 17 0;
#X connect 20 0 9 0;
#X connect 21 0 20 0;
#X connect 23 0 22 0;
#X connect 24 0 25 0;
#X connect 25 0 26 0;
#X connect 29 0 30 0;
#X connect 30 0 27 0;
#X connect 31 0 32 0;
#X connect 31 0 32 1;
#X connect 32 0 33 0;
#X connect 36 0 35 0;
#X connect 37 0 2 0;
#X connect 39 0 38 0;
#X connect 42 0 13 0;
#X connect 42 1 7 0;
#X connect 42 2 15 0;
#X connect 42 3 8 0;
#X connect 42 4 36 0;
#X connect 42 5 23 0;
#X connect 42 6 24 0;
#X connect 42 8 29 0;
#X connect 42 9 61 0;
#X connect 42 10 31 0;
#X connect 42 10 31 1;
#X connect 42 11 39 0;
#X connect 42 12 40 0;
#X connect 42 13 41 0;
#X connect 42 14 44 0;
#X connect 43 0 21 0;
#X connect 44 0 49 0;
#X connect 44 1 51 0;
#X connect 44 2 53 0;
#X connect 44 3 55 0;
#X connect 44 4 56 0;
#X connect 49 0 50 0;
#X connect 50 0 45 0;
#X connect 51 0 52 0;
#X connect 52 0 46 0;
#X connect 53 0 54 0;
#X connect 54 0 47 0;
#X connect 55 0 48 0;
#X connect 56 0 57 0;
#X connect 57 0 63 0;
#X connect 59 0 28 0;
#X connect 60 0 34 0;
#X connect 60 0 58 0;
#X connect 61 0 59 0;
#X connect 62 0 60 0;
#X connect 64 0 66 0;
#X connect 66 0 65 0;
#X restore 77 542 pd tablet-ctl;
#N canvas 1450 22 744 806 analog-synth 0;
#X obj 340 140 r note;
#X obj 184 755 dac~;
#X floatatom 370 409 5 0 0 0 - - -;
#X obj 389 325 loadbang;
#X obj 465 493 *~;
#X obj 465 521 *~;
#X obj 340 186 unpack 0 0 0;
#X text 315 165 midinote amp dur;
#X obj 128 121 hsl 128 15 0 0.2 0 0 empty osc2-detune osc2-detune -2
-8 0 10 -228856 -1 -1 0 1;
#X obj 128 271 hsl 128 15 30 120 0 0 empty cutoff cutoff -2 -8 0 10
-228856 -1 -1 5644 1;
#X obj 128 151 hsl 128 15 -1.5 1.4 0 0 empty osc2-oct osc2-oct -2 -8
0 10 -228856 -1 -1 6569 1;
#X obj 128 391 hsl 128 15 250 750 0 0 empty del-time del-time -2 -8
0 10 -228856 -1 -1 12700 1;
#X obj 128 331 hsl 128 15 0 20 0 0 empty filt-env filt-env -2 -8 0
10 -228856 -1 -1 3810 1;
#X obj 128 451 hsl 128 15 0.01 1 1 0 empty volume volume -2 -8 0 10
-228856 -1 -1 10788 1;
#X obj 341 307 *~ 0.5;
#X obj 128 301 hsl 128 15 1 4 0 0 empty vcf-rez vcf-rez -2 -8 0 10
-228856 -1 -1 3217 1;
#X obj 114 672 vd~ chorus;
#X obj 96 696 +~;
#X obj 114 614 *~ 10;
#X obj 341 690 delwrite~ chorus 30;
#X obj 341 432 bob~;
#X msg 389 380 2;
#X obj 128 421 hsl 128 15 0 1 0 0 empty del-mix del-mix -2 -8 0 10
-228856 -1 -1 1334 1;
#X obj 128 361 hsl 128 15 0 0.05 0 0 empty vibrato vibrato -2 -8 0
10 -228856 -1 -1 1270 1;
#N canvas 177 23 720 739 bandlimosc 0;
#X obj 76 55 inlet;
#X obj 68 486 outlet~;
#X obj 53 437 -~;
#X obj 201 287 /~;
#X obj 222 261 clip~ 1 999999;
#X obj 76 245 phasor~;
#X obj 88 307 *~;
#X obj 88 331 clip~ -0.5 0.5;
#X obj 88 355 *~ 1000;
#X obj 88 379 +~ 501;
#X obj 76 269 -~ 0.5;
#X obj 88 403 tabread4~ \$0-transition;
#N canvas 387 82 453 494 transition-table 0;
#X text 182 38 back the phase up one sample;
#X obj 144 159 cos~;
#X obj 96 154 cos~;
#X msg 40 223 bang;
#X msg 13 95 \; pd dsp 1;
#X msg 177 69 -0.0005;
#X obj 144 133 *~ 3;
#X obj 144 184 *~ 0.33333;
#X obj 96 182 *~ -1;
#X msg 40 50 bang;
#X obj 95 93 phasor~ 22.05;
#X obj 96 215 *~ 0.75;
#X obj 96 242 tabwrite~ \$0-transition;
#X obj 40 28 loadbang;
#X text 232 116 twice the table length;
#X text 220 93 period is 2000 samples \,;
#N canvas 0 22 450 300 (subpatch) 0;
#X array \$0-transition 1002 float 0;
#X coords 0 1 1002 -1 200 140 1;
#X restore 53 297 graph;
#X text 64 439 ----- 1002 samples ----;
#X connect 1 0 7 0;
#X connect 2 0 8 0;
#X connect 3 0 12 0;
#X connect 5 0 10 1;
#X connect 6 0 1 0;
#X connect 7 0 11 0;
#X connect 8 0 11 0;
#X connect 9 0 5 0;
#X connect 9 0 4 0;
#X connect 9 0 3 0;
#X connect 10 0 2 0;
#X connect 10 0 6 0;
#X connect 11 0 12 0;
#X connect 13 0 9 0;
#X restore 271 475 pd transition-table;
#X obj 201 159 loadbang;
#X msg 201 184 8000;
#X obj 347 428 -~;
#X obj 495 278 /~;
#X obj 516 252 clip~ 1 999999;
#X obj 370 236 phasor~;
#X obj 382 298 *~;
#X obj 382 322 clip~ -0.5 0.5;
#X obj 382 346 *~ 1000;
#X obj 382 370 +~ 501;
#X obj 370 260 -~ 0.5;
#X obj 382 394 tabread4~ \$0-transition;
#X text 72 24 freq;
#X obj 193 53 inlet;
#X text 189 22 osc2-detune;
#X obj 311 52 inlet;
#X text 307 21 osc2-octave;
#X obj 311 85 int;
#X obj 290 144 +;
#X obj 172 94 +;
#X obj 76 175 line~;
#X obj 370 177 line~;
#X obj 76 116 mtof;
#X obj 370 128 mtof;
#X text 477 19 vibrato;
#X obj 482 50 inlet;
#X obj 461 100 *~;
#X obj 461 125 +~ 1;
#X obj 370 202 *~;
#X obj 76 200 *~;
#X obj 311 113 * 12;
#X msg 76 150 \$1 100;
#X msg 370 152 \$1 100;
#X obj 461 75 osc~ 5;
#X connect 0 0 32 0;
#X connect 0 0 35 0;
#X connect 2 0 1 0;
#X connect 3 0 6 1;
#X connect 4 0 3 1;
#X connect 5 0 10 0;
#X connect 6 0 7 0;
#X connect 7 0 8 0;
#X connect 8 0 9 0;
#X connect 9 0 11 0;
#X connect 10 0 6 0;
#X connect 10 0 2 1;
#X connect 11 0 2 0;
#X connect 13 0 14 0;
#X connect 14 0 3 0;
#X connect 14 0 16 0;
#X connect 15 0 1 0;
#X connect 16 0 19 1;
#X connect 17 0 16 1;
#X connect 18 0 23 0;
#X connect 19 0 20 0;
#X connect 20 0 21 0;
#X connect 21 0 22 0;
#X connect 22 0 24 0;
#X connect 23 0 19 0;
#X connect 23 0 15 1;
#X connect 24 0 15 0;
#X connect 26 0 32 1;
#X connect 28 0 30 0;
#X connect 30 0 43 0;
#X connect 31 0 36 0;
#X connect 32 0 31 0;
#X connect 33 0 42 0;
#X connect 34 0 41 0;
#X connect 35 0 44 0;
#X connect 36 0 45 0;
#X connect 38 0 39 1;
#X connect 39 0 40 0;
#X connect 40 0 41 1;
#X connect 40 0 42 1;
#X connect 41 0 18 0;
#X connect 41 0 17 0;
#X connect 42 0 5 0;
#X connect 42 0 4 0;
#X connect 43 0 31 1;
#X connect 44 0 33 0;
#X connect 45 0 34 0;
#X connect 46 0 39 0;
#X restore 341 226 pd bandlimosc;
#X obj 114 643 +~ 11;
#X obj 353 379 *~;
#X obj 563 548 *~;
#X obj 563 573 +~ 1;
#X obj 563 600 s~ fltenv;
#X obj 371 351 r~ fltenv;
#X msg 290 270 \$1 100;
#X obj 290 295 line~;
#X obj 341 533 *~;
#X obj 341 661 +~;
#X obj 359 627 *~ 0;
#X obj 358 564 delwrite~ ndel 750;
#X obj 422 626 lop~ 4000;
#X obj 577 64 loadbang;
#X obj 128 181 hsl 128 15 1 200 0 0 empty attack attack -2 -8 0 10
-228856 -1 -1 447 1;
#X obj 128 211 hsl 128 15 0.01 1.2 0 0 empty legato legato -2 -8 0
10 -228856 -1 -1 7364 1;
#X obj 128 241 hsl 128 15 1 1000 0 0 empty release release -2 -8 0
10 -228856 -1 -1 3814 1;
#X obj 465 326 t f b;
#X obj 497 382 del;
#X obj 465 465 line~;
#X obj 497 410 pack 0 0;
#X obj 515 332 * 1;
#X obj 465 434 pack 0 0;
#X obj 515 356 + 10;
#X obj 226 672 vd~ chorus;
#X obj 209 696 +~;
#X obj 226 614 *~ 10;
#X obj 226 643 +~ 11;
#X obj 114 585 cos~;
#X obj 226 585 cos~;
#X obj 96 724 expr~ tanh($v1);
#X obj 209 724 expr~ tanh($v1);
#X obj 225 532 +~ 0.5;
#X obj 226 558 wrap~;
#X obj 563 494 *~;
#X obj 563 522 *~;
#X obj 563 327 t f b;
#X obj 595 383 del;
#X obj 563 466 line~;
#X obj 595 411 pack 0 0;
#X obj 613 333 * 1;
#X obj 563 435 pack 0 0;
#X obj 613 357 + 10;
#X obj 290 244 mtof;
#X obj 225 505 phasor~ 0.3;
#X obj 359 596 delread4~ ndel 750;
#X obj 387 535 line~;
#X msg 387 511 \$1 100;
#X obj 630 307 * 0.7;
#X obj 638 333 / 1;
#X obj 648 384 * 0.9;
#X msg 577 92 \; osc2-detune 0 \; osc2-oct 0 \; attack 8 \; legato
0.8 \; release 300 \; cutoff 70 \; vcf-rez 2 \; filt-env 6 \; vibrato
0.005 \; del-time 750 \; del-mix 0.15 \; volume 0.5 \;;
#X connect 0 0 6 0;
#X connect 2 0 20 2;
#X connect 3 0 21 0;
#X connect 4 0 5 0;
#X connect 4 0 5 1;
#X connect 5 0 33 1;
#X connect 6 0 24 0;
#X connect 6 1 42 0;
#X connect 6 1 61 0;
#X connect 6 2 46 0;
#X connect 6 2 65 0;
#X connect 8 0 24 1;
#X connect 9 0 68 0;
#X connect 10 0 24 2;
#X connect 11 0 72 0;
#X connect 12 0 27 1;
#X connect 13 0 14 1;
#X connect 14 0 20 0;
#X connect 15 0 2 0;
#X connect 16 0 17 1;
#X connect 17 0 55 0;
#X connect 18 0 25 0;
#X connect 20 0 33 0;
#X connect 21 0 2 0;
#X connect 22 0 35 1;
#X connect 23 0 24 3;
#X connect 24 0 14 0;
#X connect 25 0 16 0;
#X connect 26 0 20 1;
#X connect 27 0 28 0;
#X connect 28 0 29 0;
#X connect 30 0 26 1;
#X connect 31 0 32 0;
#X connect 32 0 26 0;
#X connect 33 0 34 0;
#X connect 33 0 36 0;
#X connect 34 0 19 0;
#X connect 34 0 50 0;
#X connect 34 0 17 0;
#X connect 35 0 34 1;
#X connect 35 0 37 0;
#X connect 37 0 36 0;
#X connect 38 0 76 0;
#X connect 39 0 47 1;
#X connect 39 0 48 1;
#X connect 39 0 74 0;
#X connect 40 0 46 1;
#X connect 40 0 73 0;
#X connect 41 0 45 1;
#X connect 41 0 75 0;
#X connect 42 0 47 0;
#X connect 42 1 43 0;
#X connect 43 0 45 0;
#X connect 44 0 4 0;
#X connect 44 0 4 1;
#X connect 45 0 44 0;
#X connect 46 0 48 0;
#X connect 47 0 44 0;
#X connect 48 0 43 1;
#X connect 49 0 50 1;
#X connect 50 0 56 0;
#X connect 51 0 52 0;
#X connect 52 0 49 0;
#X connect 53 0 18 0;
#X connect 54 0 51 0;
#X connect 55 0 1 0;
#X connect 56 0 1 1;
#X connect 57 0 58 0;
#X connect 58 0 54 0;
#X connect 59 0 60 0;
#X connect 59 0 60 1;
#X connect 60 0 27 0;
#X connect 61 0 66 0;
#X connect 61 1 62 0;
#X connect 62 0 64 0;
#X connect 63 0 59 0;
#X connect 63 0 59 1;
#X connect 64 0 63 0;
#X connect 65 0 67 0;
#X connect 66 0 63 0;
#X connect 67 0 62 1;
#X connect 68 0 31 0;
#X connect 69 0 57 0;
#X connect 69 0 53 0;
#X connect 70 0 35 0;
#X connect 71 0 70 0;
#X connect 72 0 71 0;
#X connect 73 0 65 1;
#X connect 74 0 67 1;
#X connect 75 0 64 1;
#X coords 0 -1 1 1 180 380 2 100 100;
#X restore 37 144 pd analog-synth;
#N canvas 75 101 664 608 in-c-player 0;
#X obj 109 126 tgl 25 0 empty play PLAY 0 -7 0 10 -261234 -1 -1 0 1
;
#X obj 103 350 f;
#X obj 138 350 + 1;
#X obj 103 379 mod 4;
#X floatatom 103 408 5 0 0 0 - - -;
#X obj 103 434 sel 0;
#X obj 103 463 bng 15 250 50 0 empty empty empty 17 7 0 10 -262144
-1 -1;
#X obj 286 258 qlist;
#X msg 286 230 bang;
#X obj 185 353 r mod;
#X obj 102 232 metro 250;
#X floatatom 171 169 5 0 0 0 - - -;
#X obj 260 161 f;
#X obj 295 161 + 1;
#X obj 144 126 bng 25 250 50 0 empty next NEXT 0 -7 0 10 -204786 -1
-1;
#X msg 251 122 1;
#X obj 179 126 bng 25 250 50 0 empty gotoone go_to_1 -5 -7 0 10 -204786
-1 -1;
#X obj 251 89 loadbang;
#X obj 318 123 r frag;
#X obj 113 196 hsl 90 15 0 150 0 0 empty del empty -2 -8 0 10 -204786
-1 -1 0 1;
#X obj 260 186 s menuupd;
#X obj 102 257 delay;
#X obj 455 350 tgl 15 0 empty empty empty 17 7 0 10 -262144 -1 -1 0
1;
#X obj 455 370 sel 1;
#X obj 110 168 tgl 20 0 empty metro mtr 0 -7 0 10 -204800 -1 -1 1 1
;
#X obj 139 168 tgl 20 0 empty click clck 0 -7 0 10 -204800 -1 -1 0
1;
#X obj 178 283 spigot;
#X obj 102 287 spigot;
#X obj 119 319 bng 15 250 50 0 empty empty empty 17 7 0 10 -262144
-1 -1;
#X obj 179 314 s ping;
#X obj 455 323 r ping;
#X obj 525 426 noise~;
#X obj 455 428 line~;
#X obj 455 453 *~;
#X obj 455 494 dac~;
#X msg 455 403 0.7 \, 0 30;
#X msg 332 230 read riley-fragments/frag\$1.txt;
#X connect 0 0 27 1;
#X connect 1 0 2 0;
#X connect 1 0 3 0;
#X connect 2 0 1 1;
#X connect 3 0 4 0;
#X connect 4 0 5 0;
#X connect 5 0 6 0;
#X connect 6 0 8 0;
#X connect 8 0 7 0;
#X connect 9 0 3 1;
#X connect 10 0 21 0;
#X connect 11 0 36 0;
#X connect 12 0 13 0;
#X connect 12 0 11 0;
#X connect 12 0 20 0;
#X connect 13 0 12 1;
#X connect 14 0 12 0;
#X connect 15 0 12 0;
#X connect 15 0 24 0;
#X connect 16 0 15 0;
#X connect 17 0 15 0;
#X connect 18 0 12 0;
#X connect 19 0 21 1;
#X connect 21 0 26 0;
#X connect 21 0 27 0;
#X connect 22 0 23 0;
#X connect 23 0 35 0;
#X connect 24 0 10 0;
#X connect 25 0 26 1;
#X connect 26 0 29 0;
#X connect 27 0 1 0;
#X connect 27 0 28 0;
#X connect 30 0 22 0;
#X connect 31 0 33 1;
#X connect 32 0 33 0;
#X connect 33 0 34 0;
#X connect 33 0 34 1;
#X connect 35 0 32 0;
#X connect 36 0 7 0;
#X coords 0 -1 1 1 120 120 2 100 100;
#X restore 65 16 pd in-c-player;
