#N canvas 1310 423 450 300 16;
#X obj 100 64 phasor~;
#X obj 100 98 *~ -1;
#X obj 100 129 +~ 1;
#X obj 63 162 min~;
#X obj 63 195 -~ 0.25;
#X obj 63 224 *~ 4;
#X obj 63 265 outlet~;
#X obj 100 30 inlet;
#X connect 0 0 1 0;
#X connect 0 0 3 0;
#X connect 1 0 2 0;
#X connect 2 0 3 1;
#X connect 3 0 4 0;
#X connect 4 0 5 0;
#X connect 5 0 6 0;
#X connect 7 0 0 0;
